<?xml version="1.0" standalone="no"?>
<!DOCTYPE svg PUBLIC "-//W3C//DTD SVG 20010904//EN"
 "http://www.w3.org/TR/2001/REC-SVG-20010904/DTD/svg10.dtd">
<svg version="1.0" xmlns="http://www.w3.org/2000/svg"
 width="2000.000000pt" height="2195.000000pt" viewBox="0 0 2000.000000 2195.000000"
 preserveAspectRatio="xMidYMid meet">

<g transform="translate(0.000000,2195.000000) scale(0.100000,-0.100000)"
fill="#000000" stroke="none">
<path d="M0 10975 l0 -10975 10000 0 10000 0 0 10975 0 10975 -10000 0 -10000
0 0 -10975z m19740 3660 l0 -7055 -9740 0 -9740 0 0 7055 0 7055 9740 0 9740
0 0 -7055z"/>
<path d="M14150 20553 c-147 -6 -488 -34 -635 -54 -904 -118 -1652 -412 -2235
-877 -119 -96 -335 -310 -424 -422 -337 -420 -548 -934 -611 -1485 -19 -165
-22 -524 -5 -695 43 -439 158 -801 352 -1114 192 -309 584 -678 981 -921 491
-300 1364 -594 2907 -980 974 -244 1547 -433 1896 -626 318 -176 631 -441 772
-654 210 -316 293 -756 226 -1195 -55 -361 -209 -669 -469 -939 -465 -482
-1103 -729 -2100 -813 -196 -16 -848 -16 -1025 0 -661 62 -1201 189 -1801 425
-587 231 -1082 530 -1458 882 -52 47 -97 83 -101 78 -4 -4 -114 -218 -244
-475 l-236 -466 107 -100 c123 -114 216 -193 323 -273 733 -549 1877 -960
3035 -1088 327 -36 502 -45 890 -45 600 1 1057 46 1527 150 826 182 1520 540
1993 1025 216 222 354 417 494 700 195 392 287 768 298 1224 18 701 -149 1276
-498 1710 -35 44 -125 141 -199 215 -257 257 -553 471 -879 634 -425 213
-1238 475 -2301 741 -972 243 -1674 451 -2019 597 -426 181 -832 490 -1023
778 -162 245 -248 556 -248 901 0 597 231 1082 702 1475 514 429 1304 644
2363 644 1086 0 2177 -314 3088 -888 65 -41 119 -73 121 -71 3 4 242 567 372
876 l43 102 -100 66 c-394 259 -929 503 -1444 658 -789 238 -1564 334 -2435
300z"/>
<path d="M1390 14635 l0 -5825 3875 0 3875 0 0 535 0 535 -3260 0 -3260 0 0
5290 0 5290 -615 0 -615 0 0 -5825z"/>
</g>
</svg>
